<svg class="main-svg" xmlns="http://www.w3.org/2000/svg" xmlns:xlink="http://www.w3.org/1999/xlink" width="700" height="500" style="" viewBox="0 0 700 500"><rect x="0" y="0" width="700" height="500" style="fill: rgb(255, 255, 255); fill-opacity: 1;"/><defs id="defs-084324"><g class="clips"><clipPath id="clip084324xyplot" class="plotclip"><rect width="630" height="435"/></clipPath><clipPath class="axesclip" id="clip084324x"><rect x="60" y="0" width="630" height="500"/></clipPath><clipPath class="axesclip" id="clip084324y"><rect x="0" y="25" width="700" height="435"/></clipPath><clipPath class="axesclip" id="clip084324xy"><rect x="60" y="25" width="630" height="435"/></clipPath></g><g class="gradients"/></defs><g class="bglayer"/><g class="layer-below"><g class="imagelayer"/><g class="shapelayer"/></g><g class="cartesianlayer"><g class="subplot xy"><g class="layer-subplot"><g class="shapelayer"/><g class="imagelayer"/></g><g class="gridlayer"><g class="x"><path class="xgrid crisp" transform="translate(134.34,0)" d="M0,25v435" style="stroke: rgb(238, 238, 238); stroke-opacity: 1; stroke-width: 1px;"/><path class="xgrid crisp" transform="translate(254.67,0)" d="M0,25v435" style="stroke: rgb(238, 238, 238); stroke-opacity: 1; stroke-width: 1px;"/><path class="xgrid crisp" transform="translate(495.33,0)" d="M0,25v435" style="stroke: rgb(238, 238, 238); stroke-opacity: 1; stroke-width: 1px;"/><path class="xgrid crisp" transform="translate(615.66,0)" d="M0,25v435" style="stroke: rgb(238, 238, 238); stroke-opacity: 1; stroke-width: 1px;"/></g><g class="y"><path class="ygrid crisp" transform="translate(0,377.49)" d="M60,0h630" style="stroke: rgb(238, 238, 238); stroke-opacity: 1; stroke-width: 1px;"/><path class="ygrid crisp" transform="translate(0,294.97)" d="M60,0h630" style="stroke: rgb(238, 238, 238); stroke-opacity: 1; stroke-width: 1px;"/><path class="ygrid crisp" transform="translate(0,212.46)" d="M60,0h630" style="stroke: rgb(238, 238, 238); stroke-opacity: 1; stroke-width: 1px;"/><path class="ygrid crisp" transform="translate(0,129.95)" d="M60,0h630" style="stroke: rgb(238, 238, 238); stroke-opacity: 1; stroke-width: 1px;"/><path class="ygrid crisp" transform="translate(0,47.43)" d="M60,0h630" style="stroke: rgb(238, 238, 238); stroke-opacity: 1; stroke-width: 1px;"/></g></g><g class="zerolinelayer"><path class="xzl zl crisp" transform="translate(375,0)" d="M0,25v435" style="stroke: rgb(68, 68, 68); stroke-opacity: 1; stroke-width: 1px;"/><path class="yzl zl crisp" transform="translate(0,460)" d="M60,0h630" style="stroke: rgb(68, 68, 68); stroke-opacity: 1; stroke-width: 1px;"/></g><path class="xlines-below"/><path class="ylines-below"/><g class="overlines-below"/><g class="xaxislayer-below"/><g class="yaxislayer-below"/><g class="overaxes-below"/><g class="plot" transform="translate(60, 25)" clip-path="url('#clip084324xyplot')"><g class="scatterlayer mlayer"><g class="trace scatter traceaea2b1" style="stroke-miterlimit: 2;"><g class="fills"><g><path class="js-fill" d="M630,435L0,435L0,434.99L145.48,434.25L146.71,434.19L160.27,432.77L161.51,432.57L177.53,429.04L178.77,428.69L202.19,422.08L203.42,421.99L209.59,422.33L210.82,422.54L218.22,424.62L219.45,425.07L241.64,433.06L242.88,433.3L251.51,434.13L252.74,434.14L261.37,433.45L262.6,433.22L268.77,431.25L270,430.59L273.7,427.76L274.93,426.45L278.63,420.93L279.86,418.35L283.56,407.8L284.79,403.14L288.49,384.76L289.73,376.88L293.42,347.58L294.66,335.87L299.59,279.64L300.82,263.76L310.68,140.24L311.92,128.93L315.62,105.65L316.85,102.13L318.08,100.66L319.32,101.22L320.55,103.75L321.78,108.16L324.25,122.11L325.48,131.53L330.41,178.89L331.64,192.19L342.74,306.56L343.97,317.01L350.14,360.77L351.37,367.86L356.3,390.91L357.53,395.52L362.47,409.94L363.7,412.61L367.4,418.77L368.63,420.25L372.33,423.05L373.56,423.48L377.26,423.38L378.49,422.9L382.19,420.04L383.42,418.65L387.12,413.24L388.36,411.05L394.52,397.52L395.75,394.45L408.08,364.44L409.32,362.09L414.25,354.78L415.48,353.51L419.18,351.23L420.41,350.94L424.11,351.43L425.34,352.02L429.04,355.07L430.27,356.44L435.21,363.39L436.44,365.44L458.63,403.7L459.86,405.42L468.49,415.96L469.73,417.27L477.12,424.03L478.36,424.97L485.75,429.5L486.99,430.08L494.38,432.61L495.62,432.9L505.48,434.2L506.71,434.28L531.37,434.93L532.6,434.94L565.89,434.48L567.12,434.35L576.99,432.35L578.22,431.98L590.55,428.68L591.78,428.57L597.95,428.96L599.18,429.21L621.37,434.53L622.6,434.63L630,434.93" style="fill: rgb(31, 119, 180); fill-opacity: 0.3; stroke-width: 0;"/></g></g><g class="errorbars"/><g class="lines"><path class="js-line" d="M0,434.99L145.48,434.25L146.71,434.19L160.27,432.77L161.51,432.57L177.53,429.04L178.77,428.69L202.19,422.08L203.42,421.99L209.59,422.33L210.82,422.54L218.22,424.62L219.45,425.07L241.64,433.06L242.88,433.3L251.51,434.13L252.74,434.14L261.37,433.45L262.6,433.22L268.77,431.25L270,430.59L273.7,427.76L274.93,426.45L278.63,420.93L279.86,418.35L283.56,407.8L284.79,403.14L288.49,384.76L289.73,376.88L293.42,347.58L294.66,335.87L299.59,279.64L300.82,263.76L310.68,140.24L311.92,128.93L315.62,105.65L316.85,102.13L318.08,100.66L319.32,101.22L320.55,103.75L321.78,108.16L324.25,122.11L325.48,131.53L330.41,178.89L331.64,192.19L342.74,306.56L343.97,317.01L350.14,360.77L351.37,367.86L356.3,390.91L357.53,395.52L362.47,409.94L363.7,412.61L367.4,418.77L368.63,420.25L372.33,423.05L373.56,423.48L377.26,423.38L378.49,422.9L382.19,420.04L383.42,418.65L387.12,413.24L388.36,411.05L394.52,397.52L395.75,394.45L408.08,364.44L409.32,362.09L414.25,354.78L415.48,353.51L419.18,351.23L420.41,350.94L424.11,351.43L425.34,352.02L429.04,355.07L430.27,356.44L435.21,363.39L436.44,365.44L458.63,403.7L459.86,405.42L468.49,415.96L469.73,417.27L477.12,424.03L478.36,424.97L485.75,429.5L486.99,430.08L494.38,432.61L495.62,432.9L505.48,434.2L506.71,434.28L531.37,434.93L532.6,434.94L565.89,434.48L567.12,434.35L576.99,432.35L578.22,431.98L590.55,428.68L591.78,428.57L597.95,428.96L599.18,429.21L621.37,434.53L622.6,434.63L630,434.93" style="vector-effect: non-scaling-stroke; fill: none; stroke: rgb(31, 119, 180); stroke-opacity: 1; stroke-width: 2px; opacity: 1;"/></g><g class="points"/><g class="text"/></g><g class="trace scatter tracebf42db" style="stroke-miterlimit: 2;"><g class="fills"><g><path class="js-fill" d="M616.04,435L13.96,435L13.96,434.97L24.57,434.18L25.74,433.96L37.53,432.12L38.71,432.21L48.13,434.07L49.31,434.27L58.74,434.96L59.91,434.97L123.54,434.77L124.72,434.69L147.1,433L148.28,433.04L156.53,432.46L157.71,432.23L173.02,428.21L174.2,427.83L201.3,419.79L202.48,419.51L209.55,418.72L210.73,418.86L215.44,420.56L216.62,421.21L233.11,430.53L234.29,431L241.36,432.92L242.54,433.12L254.32,434.18L255.5,434.19L263.75,433.56L264.93,433.33L270.82,431.25L271.99,430.56L275.53,427.6L276.71,426.21L280.24,420.2L281.42,417.45L284.96,406.36L286.13,401.59L289.67,383.69L290.85,376.4L295.56,339.53L296.74,327.89L300.27,284.7L301.45,267.01L306.16,178.7L307.34,153.8L312.05,62.37L313.23,45.68L315.59,24.89L316.77,21.75L317.95,23.18L319.12,28.87L321.48,50.94L322.66,66.05L330.91,194.77L332.08,212.31L339.15,303.53L340.33,316.07L345.04,357.19L346.22,365.35L350.94,390.94L352.11,395.88L356.83,411.2L358.01,414.1L361.54,420.93L362.72,422.63L366.25,426.32L367.43,427.14L372.14,428.98L373.32,429.13L376.86,428.86L378.04,428.48L381.57,426.16L382.75,424.92L386.28,419.64L387.46,417.35L392.17,405.74L393.35,402.31L402.78,371.31L403.96,367.37L409.85,350.19L411.03,347.62L414.56,342.47L415.74,341.72L418.1,341.77L419.27,342.61L421.63,345.65L422.81,347.75L428.7,361.25L429.88,364.04L434.59,373.63L435.77,375.53L440.48,381.5L441.66,382.74L448.73,390.93L449.91,392.6L467.58,418.73L468.76,420.06L474.65,425.6L475.83,426.48L482.9,430.49L484.08,431L491.15,433.21L492.32,433.41L500.57,433.81L501.75,433.82L518.24,434.83L519.42,434.87L545.34,435L546.52,435L577.16,434.28L578.33,434.01L584.23,431.62L585.4,430.97L591.29,428.3L592.47,428.09L596.01,428.45L597.19,428.87L610.15,434.39L611.32,434.58L616.04,434.92" style="fill: rgb(255, 127, 14); fill-opacity: 0.3; stroke-width: 0;"/></g></g><g class="errorbars"/><g class="lines"><path class="js-line" d="M13.96,434.97L24.57,434.18L25.74,433.96L37.53,432.12L38.71,432.21L48.13,434.07L49.31,434.27L58.74,434.96L59.91,434.97L123.54,434.77L124.72,434.69L147.1,433L148.28,433.04L156.53,432.46L157.71,432.23L173.02,428.21L174.2,427.83L201.3,419.79L202.48,419.51L209.55,418.72L210.73,418.86L215.44,420.56L216.62,421.21L233.11,430.53L234.29,431L241.36,432.92L242.54,433.12L254.32,434.18L255.5,434.19L263.75,433.56L264.93,433.33L270.82,431.25L271.99,430.56L275.53,427.6L276.71,426.21L280.24,420.2L281.42,417.45L284.96,406.36L286.13,401.59L289.67,383.69L290.85,376.4L295.56,339.53L296.74,327.89L300.27,284.7L301.45,267.01L306.16,178.7L307.34,153.8L312.05,62.37L313.23,45.68L315.59,24.89L316.77,21.75L317.95,23.18L319.12,28.87L321.48,50.94L322.66,66.05L330.91,194.77L332.08,212.31L339.15,303.53L340.33,316.07L345.04,357.19L346.22,365.35L350.94,390.94L352.11,395.88L356.83,411.2L358.01,414.1L361.54,420.93L362.72,422.63L366.25,426.32L367.43,427.14L372.14,428.98L373.32,429.13L376.86,428.86L378.04,428.48L381.57,426.16L382.75,424.92L386.28,419.64L387.46,417.35L392.17,405.74L393.35,402.31L402.78,371.31L403.96,367.37L409.85,350.19L411.03,347.62L414.56,342.47L415.74,341.72L418.1,341.77L419.27,342.61L421.63,345.65L422.81,347.75L428.7,361.25L429.88,364.04L434.59,373.63L435.77,375.53L440.48,381.5L441.66,382.74L448.73,390.93L449.91,392.6L467.58,418.73L468.76,420.06L474.65,425.6L475.83,426.48L482.9,430.49L484.08,431L491.15,433.21L492.32,433.41L500.57,433.81L501.75,433.82L518.24,434.83L519.42,434.87L545.34,435L546.52,435L577.16,434.28L578.33,434.01L584.23,431.62L585.4,430.97L591.29,428.3L592.47,428.09L596.01,428.45L597.19,428.87L610.15,434.39L611.32,434.58L616.04,434.92" style="vector-effect: non-scaling-stroke; fill: none; stroke: rgb(255, 127, 14); stroke-opacity: 1; stroke-width: 2px; opacity: 1;"/></g><g class="points"/><g class="text"/></g></g></g><g class="overplot"/><path class="xlines-above crisp" style="fill: none;" d="M0,0"/><path class="ylines-above crisp" style="fill: none;" d="M0,0"/><g class="overlines-above"/><g class="xaxislayer-above"><g class="xtick"><text text-anchor="middle" x="0" y="473" transform="translate(134.34,0)" style="font-family: 'Open Sans', verdana, arial, sans-serif; font-size: 12px; fill: rgb(68, 68, 68); fill-opacity: 1; white-space: pre;">−20</text></g><g class="xtick"><text text-anchor="middle" x="0" y="473" transform="translate(254.67,0)" style="font-family: 'Open Sans', verdana, arial, sans-serif; font-size: 12px; fill: rgb(68, 68, 68); fill-opacity: 1; white-space: pre;">−10</text></g><g class="xtick"><text text-anchor="middle" x="0" y="473" transform="translate(375,0)" style="font-family: 'Open Sans', verdana, arial, sans-serif; font-size: 12px; fill: rgb(68, 68, 68); fill-opacity: 1; white-space: pre;">0</text></g><g class="xtick"><text text-anchor="middle" x="0" y="473" transform="translate(495.33,0)" style="font-family: 'Open Sans', verdana, arial, sans-serif; font-size: 12px; fill: rgb(68, 68, 68); fill-opacity: 1; white-space: pre;">10</text></g><g class="xtick"><text text-anchor="middle" x="0" y="473" transform="translate(615.66,0)" style="font-family: 'Open Sans', verdana, arial, sans-serif; font-size: 12px; fill: rgb(68, 68, 68); fill-opacity: 1; white-space: pre;">20</text></g></g><g class="yaxislayer-above"><g class="ytick"><text text-anchor="end" x="59" y="4.199999999999999" transform="translate(0,460)" style="font-family: 'Open Sans', verdana, arial, sans-serif; font-size: 12px; fill: rgb(68, 68, 68); fill-opacity: 1; white-space: pre;">0</text></g><g class="ytick"><text text-anchor="end" x="59" y="4.199999999999999" transform="translate(0,377.49)" style="font-family: 'Open Sans', verdana, arial, sans-serif; font-size: 12px; fill: rgb(68, 68, 68); fill-opacity: 1; white-space: pre;">0.05</text></g><g class="ytick"><text text-anchor="end" x="59" y="4.199999999999999" transform="translate(0,294.97)" style="font-family: 'Open Sans', verdana, arial, sans-serif; font-size: 12px; fill: rgb(68, 68, 68); fill-opacity: 1; white-space: pre;">0.1</text></g><g class="ytick"><text text-anchor="end" x="59" y="4.199999999999999" transform="translate(0,212.46)" style="font-family: 'Open Sans', verdana, arial, sans-serif; font-size: 12px; fill: rgb(68, 68, 68); fill-opacity: 1; white-space: pre;">0.15</text></g><g class="ytick"><text text-anchor="end" x="59" y="4.199999999999999" transform="translate(0,129.95)" style="font-family: 'Open Sans', verdana, arial, sans-serif; font-size: 12px; fill: rgb(68, 68, 68); fill-opacity: 1; white-space: pre;">0.2</text></g><g class="ytick"><text text-anchor="end" x="59" y="4.199999999999999" transform="translate(0,47.43)" style="font-family: 'Open Sans', verdana, arial, sans-serif; font-size: 12px; fill: rgb(68, 68, 68); fill-opacity: 1; white-space: pre;">0.25</text></g></g><g class="overaxes-above"/></g></g><g class="polarlayer"/><g class="ternarylayer"/><g class="geolayer"/><g class="funnelarealayer"/><g class="pielayer"/><g class="treemaplayer"/><g class="sunburstlayer"/><g class="glimages"/><defs id="topdefs-084324"><g class="clips"/><clipPath id="legend084324"><rect width="111" height="48" x="0" y="0"/></clipPath></defs><g class="layer-above"><g class="imagelayer"/><g class="shapelayer"/></g><g class="infolayer"><g class="legend" pointer-events="all" transform="translate(91.5, 46.750000000000014)"><rect class="bg" shape-rendering="crispEdges" style="stroke: rgb(68, 68, 68); stroke-opacity: 1; fill: rgb(255, 255, 255); fill-opacity: 1; stroke-width: 0px;" width="111" height="48" x="0" y="0"/><g class="scrollbox" transform="translate(0, 0)" clip-path="url('#legend084324')"><g class="groups"><g class="traces" style="opacity: 1;" transform="translate(0, 14.5)"><text class="legendtext user-select-none" text-anchor="start" x="40" y="4.680000000000001" style="font-family: 'Open Sans', verdana, arial, sans-serif; font-size: 12px; fill: rgb(68, 68, 68); fill-opacity: 1; white-space: pre;">Pre-follow</text><g class="layers"><g class="legendfill"><path class="js-fill" d="M5,-2h30v6h-30z" style="stroke-width: 0; fill: rgb(31, 119, 180); fill-opacity: 0.3;"/></g><g class="legendlines"><path class="js-line" d="M5,-2h30" style="fill: none; stroke: rgb(31, 119, 180); stroke-opacity: 1; stroke-width: 2px;"/></g><g class="legendsymbols"><g class="legendpoints"/></g></g><rect class="legendtoggle" pointer-events="all" x="0" y="-9.5" width="105.796875" height="19" style="cursor: pointer; fill: rgb(0, 0, 0); fill-opacity: 0;"/></g><g class="traces" style="opacity: 1;" transform="translate(0, 33.5)"><text class="legendtext user-select-none" text-anchor="start" x="40" y="4.680000000000001" style="font-family: 'Open Sans', verdana, arial, sans-serif; font-size: 12px; fill: rgb(68, 68, 68); fill-opacity: 1; white-space: pre;">Post-follow</text><g class="layers"><g class="legendfill"><path class="js-fill" d="M5,-2h30v6h-30z" style="stroke-width: 0; fill: rgb(255, 127, 14); fill-opacity: 0.3;"/></g><g class="legendlines"><path class="js-line" d="M5,-2h30" style="fill: none; stroke: rgb(255, 127, 14); stroke-opacity: 1; stroke-width: 2px;"/></g><g class="legendsymbols"><g class="legendpoints"/></g></g><rect class="legendtoggle" pointer-events="all" x="0" y="-9.5" width="105.796875" height="19" style="cursor: pointer; fill: rgb(0, 0, 0); fill-opacity: 0;"/></g></g></g><rect class="scrollbar" rx="20" ry="3" width="0" height="0" style="fill: rgb(128, 139, 164); fill-opacity: 1;" x="0" y="0"/></g><g class="g-gtitle"/><g class="g-xtitle" transform="translate(0,-15)"><text class="xtitle" x="375" y="512" text-anchor="middle" style="font-family: 'Open Sans', verdana, arial, sans-serif; font-size: 14px; fill: rgb(68, 68, 68); opacity: 1; font-weight: normal; white-space: pre;">Disposition Effect</text></g><g class="g-ytitle"><text class="ytitle" transform="rotate(-90,22,242.5)" x="22" y="242.5" text-anchor="middle" style="font-family: 'Open Sans', verdana, arial, sans-serif; font-size: 14px; fill: rgb(68, 68, 68); opacity: 1; font-weight: normal; white-space: pre;">Density</text></g></g></svg>