<svg class="main-svg" xmlns="http://www.w3.org/2000/svg" xmlns:xlink="http://www.w3.org/1999/xlink" width="700" height="500" style="" viewBox="0 0 700 500"><rect x="0" y="0" width="700" height="500" style="fill: rgb(255, 255, 255); fill-opacity: 1;"/><defs id="defs-6fa67e"><g class="clips"><clipPath id="clip6fa67exyplot" class="plotclip"><rect width="644" height="440"/></clipPath><clipPath class="axesclip" id="clip6fa67ex"><rect x="49" y="0" width="644" height="500"/></clipPath><clipPath class="axesclip" id="clip6fa67ey"><rect x="0" y="23" width="700" height="440"/></clipPath><clipPath class="axesclip" id="clip6fa67exy"><rect x="49" y="23" width="644" height="440"/></clipPath></g><g class="gradients"/></defs><g class="bglayer"/><g class="layer-below"><g class="imagelayer"/><g class="shapelayer"/></g><g class="cartesianlayer"><g class="subplot xy"><g class="layer-subplot"><g class="shapelayer"/><g class="imagelayer"/></g><g class="gridlayer"><g class="x"><path class="xgrid crisp" transform="translate(225.37,0)" d="M0,23v440" style="stroke: rgb(235, 235, 235); stroke-opacity: 1; stroke-width: 0.664176px;"/><path class="xgrid crisp" transform="translate(372.47,0)" d="M0,23v440" style="stroke: rgb(235, 235, 235); stroke-opacity: 1; stroke-width: 0.664176px;"/><path class="xgrid crisp" transform="translate(519.5699999999999,0)" d="M0,23v440" style="stroke: rgb(235, 235, 235); stroke-opacity: 1; stroke-width: 0.664176px;"/><path class="xgrid crisp" transform="translate(666.67,0)" d="M0,23v440" style="stroke: rgb(235, 235, 235); stroke-opacity: 1; stroke-width: 0.664176px;"/></g><g class="y"><path class="ygrid crisp" transform="translate(0,409.24)" d="M49,0h644" style="stroke: rgb(235, 235, 235); stroke-opacity: 1; stroke-width: 0.664176px;"/><path class="ygrid crisp" transform="translate(0,287.16)" d="M49,0h644" style="stroke: rgb(235, 235, 235); stroke-opacity: 1; stroke-width: 0.664176px;"/><path class="ygrid crisp" transform="translate(0,165.08)" d="M49,0h644" style="stroke: rgb(235, 235, 235); stroke-opacity: 1; stroke-width: 0.664176px;"/><path class="ygrid crisp" transform="translate(0,43)" d="M49,0h644" style="stroke: rgb(235, 235, 235); stroke-opacity: 1; stroke-width: 0.664176px;"/></g></g><g class="zerolinelayer"><path class="xzl zl crisp" transform="translate(78.27,0)" d="M0,23v440" style="stroke: rgb(68, 68, 68); stroke-opacity: 1; stroke-width: 1px;"/></g><path class="xlines-below"/><path class="ylines-below"/><g class="overlines-below"/><g class="xaxislayer-below"/><g class="yaxislayer-below"/><g class="overaxes-below"/><g class="plot" transform="translate(49, 23)" clip-path="url('#clip6fa67exyplot')"><g class="scatterlayer mlayer"><g class="trace scatter traceba3675" style="stroke-miterlimit: 2; opacity: 1;"><g class="fills"/><g class="errorbars"/><g class="lines"><path class="js-line" d="M29.27,20H29.27V24.94H32.21V35.03H35.16V46.45H38.1V54.06H41.04V65.42H43.98V73.58H46.92V81.06H49.87V89.64H52.81V94.44H55.75V97.43H58.69V100.3H61.63V103.91H64.58V106.94H67.52V110.04H70.46V113.54H73.4V116.17H76.34V118.11H79.29V119.95H82.23V122.36H85.17V124.68H88.11V127.13H91.05V130.35H94V132.36H96.94V133.94H99.88V135.14H102.82V136.41H105.76V137.45H108.71V138.66H111.65V140.28H114.59V142.17H117.53V143.2H120.47V144.3H123.42V145.42H126.36V146.62H129.3V148.63H132.24V150.38H135.18V152.11H138.13V153.23H141.07V154.23H144.01V155.79H146.95V156.9H149.89V157.74H152.84V159.18H155.78V160.51H158.72V160.97H161.66V161.74H164.6V163.07H167.55V163.62H170.49V164.51H173.43V165.34H176.37V167.12H179.31V167.64H182.26V168.17H185.2V169.24H188.14V170.15H191.08V171.26H194.02V173.25H196.97V174.9H199.91V175.98H202.85V176.69H205.79V178.83H208.73V179.87H211.68V180.81H214.62V183.06H217.56V184.15H220.5V184.49H223.44V185.4H226.39V185.86H229.33V187.02H232.27V187.61H235.21V188.7H238.15V189.32H241.1V189.95H244.04V190.59H246.98V191.5H249.92V192.55H252.86V193.08H255.81V193.89H258.75V194.87H261.69V195.01H264.63V195.3H267.57V195.73H270.52V196.47H273.46V197.66H276.4V198.73H279.34V199.82H282.28V200.61H285.23V201.58H288.17V202.39H291.11V203.22H294.05V203.88H296.99V205.08H299.94V205.78H302.88V206.13H305.82V207.22H308.76V207.95H311.7V208.51H314.65V208.69H317.59V209.46H320.53V210.25H323.47V210.65H326.41V211.67H329.35V212.3H332.3V212.51H335.24V213.14H338.18V214.01H341.12V215.13H344.06V216.04H347.01V217.2H349.95V218.13H352.89V218.61H355.83V219.57H358.77V221.05H361.72V222.81H364.66V222.81H367.6V223.59H370.54V223.59H373.48V224.13H376.43V224.95H379.37V225.23H382.31V226.96H385.25V227.54H388.19V227.54H391.14V227.85H394.08V227.85H397.02V228.48H399.96V229.12H402.9V229.78H405.85V230.11H408.79V230.46H411.73V231.16H414.67V231.87H417.61V232.95H420.56V233.32H423.5V233.7H426.44V234.88H429.38V235.28H432.32V235.68H435.27V235.68H438.21V236.52H441.15V238.69H444.09V240.48H447.03V240.48H449.98V240.95H452.92V241.43H455.86V241.91H458.8V242.41H461.74V242.41H464.69V243.47H467.63V244.55H470.57V246.22H473.51V246.22H476.45V246.8H479.4V247.39H482.34V248.01H485.28V251.83H488.22V253.8H491.16V254.48H494.11V255.17H497.05V255.17H499.99V255.89H502.93V256.64H505.87V258.98H508.82V259.79H511.76V260.62H514.7V261.48H517.64V264.1H520.58V265.89H523.53V267.76H526.47V270.7H529.41V270.7H532.35V271.76H535.29V271.76H538.24V274H541.18V275.17H544.12V275.17H547.06V275.17H550V275.17H552.95V278.01H555.89V278.01H558.83V278.01H561.77V278.01H564.71V279.72H567.66V279.72H570.6V283.78H573.54V285.95H576.48V290.57H579.42V293.01H582.37V293.01H585.31V293.01H588.25V299.65H591.19V311.03H594.13V311.03H597.08V315.88H600.02V315.88H602.96V315.88H605.9V315.88H608.84V315.88H611.79V315.88H614.73V315.88" style="vector-effect: non-scaling-stroke; fill: none; stroke: rgb(255, 127, 14); stroke-opacity: 1; stroke-width: 1.88976px; opacity: 1;"/></g><g class="points"/><g class="text"/></g><g class="trace scatter traceddb460" style="stroke-miterlimit: 2; opacity: 1;"><g class="fills"/><g class="errorbars"/><g class="lines"><path class="js-line" d="M29.27,20H29.27V25.79H32.21V38.16H35.16V51.87H38.1V60.42H41.04V70.95H43.98V80.3H46.92V90.14H49.87V99.23H52.81V104.89H55.75V109.1H58.69V112.45H61.63V115.93H64.58V119.49H67.52V124.18H70.46V128.89H73.4V132.27H76.34V134.61H79.29V137.25H82.23V139.16H85.17V141.53H88.11V144.23H91.05V147.5H94V149.59H96.94V151.55H99.88V153.31H102.82V154.71H105.76V156.39H108.71V158.42H111.65V161.05H114.59V162.54H117.53V163.97H120.47V165.01H123.42V165.78H126.36V167.65H129.3V169.26H132.24V170.77H135.18V171.88H138.13V172.42H141.07V173.44H144.01V174.77H146.95V175.83H149.89V176.7H152.84V178.33H155.78V179.18H158.72V180.04H161.66V180.84H164.6V181.41H167.55V181.99H170.49V182.83H173.43V184.65H176.37V185.63H179.31V186.09H182.26V187.3H185.2V188.15H188.14V188.83H191.08V189.42H194.02V190.63H196.97V191.26H199.91V192.01H202.85V192.77H205.79V192.88H208.73V193.67H211.68V194.7H214.62V195.52H217.56V196.61H220.5V197.73H223.44V198.11H226.39V198.88H229.33V199.27H232.27V200.47H235.21V201.56H238.15V202.27H241.1V203.28H244.04V204.45H246.98V204.6H249.92V205.06H252.86V205.68H255.81V206.64H258.75V207.94H261.69V208.45H264.63V209.3H267.57V210.86H270.52V211.92H273.46V212.1H276.4V213.02H279.34V213.21H282.28V213.6H285.23V214.98H288.17V215.39H291.11V216H294.05V216.63H296.99V218.55H299.94V218.78H302.88V219.91H305.82V220.6H308.76V220.83H311.7V221.55H314.65V222.52H317.59V224.01H320.53V224.53H323.47V225.05H326.41V225.86H329.35V225.86H332.3V226.14H335.24V226.7H338.18V228.15H341.12V229.05H344.06V229.97H347.01V230.59H349.95V230.91H352.89V231.56H355.83V232.55H358.77V233.56H361.72V235.65H364.66V236.37H367.6V237.1H370.54V238.21H373.48V239.35H376.43V239.74H379.37V240.92H382.31V241.33H385.25V241.75H388.19V242.61H391.14V242.61H394.08V243.5H397.02V244.41H399.96V245.34H402.9V245.83H405.85V246.32H408.79V246.32H411.73V246.84H414.67V246.84H417.61V247.38H420.56V247.93H423.5V248.5H426.44V248.5H429.38V249.1H432.32V249.1H435.27V249.73H438.21V249.73H441.15V250.39H444.09V250.39H447.03V250.39H449.98V251.83H452.92V251.83H455.86V251.83H458.8V252.6H461.74V254.2H464.69V257.51H467.63V257.51H470.57V257.51H473.51V258.41H476.45V260.25H479.4V260.25H482.34V261.23H485.28V263.28H488.22V264.34H491.16V264.34H494.11V266.58H497.05V266.58H499.99V267.75H502.93V267.75H505.87V269.03H508.82V269.03H511.76V270.4H514.7V271.82H517.64V274.75H520.58V276.27H523.53V276.27H526.47V277.96H529.41V277.96H532.35V277.96H535.29V277.96H538.24V277.96H541.18V280.02H544.12V284.41H547.06V284.41H550V286.89H552.95V286.89H555.89V286.89H558.83V286.89H561.77V286.89H564.71V286.89H567.66V286.89H570.6V298.43H573.54V302.49H576.48V302.49H579.42V302.49H582.37V302.49H585.31V302.49H588.25V302.49H591.19V302.49H594.13V302.49H597.08V311.76H600.02V322.35H602.96V334.93H605.9V334.93H608.84V334.93H611.79V381.17H614.73V381.17" style="vector-effect: non-scaling-stroke; fill: none; stroke: rgb(31, 119, 180); stroke-opacity: 1; stroke-width: 1.88976px; opacity: 1;"/></g><g class="points"/><g class="text"/></g><g class="trace scatter trace475c58" style="stroke-miterlimit: 2; opacity: 1;"><g class="fills"/><g class="errorbars"/><g class="lines"><path class="js-line" d="M29.27,20H29.27V31.8H32.21V89.82H35.16V103.42H38.1V124.53H41.04V135.63H43.98V146.48H46.92V155.49H49.87V164.54H52.81V170.08H55.75V173.92H58.69V178.06H61.63V182.37H64.58V186.63H67.52V190.71H70.46V195.24H73.4V198.68H76.34V200.98H79.29V203.02H82.23V205.32H85.17V207.89H88.11V211.31H91.05V214.39H94V216.3H96.94V217.66H99.88V219.21H102.82V220.47H105.76V221.6H108.71V223.68H111.65V225.93H114.59V227.57H117.53V229.2H120.47V230.71H123.42V231.68H126.36V232.82H129.3V234.64H132.24V236.51H135.18V238.07H138.13V239.05H141.07V240.13H144.01V241.19H146.95V242.37H149.89V243.72H152.84V245.71H155.78V247.09H158.72V247.92H161.66V249.05H164.6V249.94H167.55V250.98H170.49V252.08H173.43V253.68H176.37V254.97H179.31V256.24H182.26V257.12H185.2V257.69H188.14V258.88H191.08V259.86H194.02V260.75H196.97V261.52H199.91V262.31H202.85V263.17H205.79V264.52H208.73V265.35H211.68V266.36H214.62V267.63H217.56V268.46H220.5V269.3H223.44V269.92H226.39V270.54H229.33V271.44H232.27V272.47H235.21V273.53H238.15V273.94H241.1V274.99H244.04V275.49H246.98V276.06H249.92V276.95H252.86V278H255.81V279.07H258.75V279.7H261.69V280.83H264.63V281.24H267.57V282.07H270.52V282.58H273.46V283.36H276.4V283.89H279.34V284.62H282.28V285.27H285.23V285.84H288.17V286.9H291.11V287.4H294.05V288.8H296.99V289.62H299.94V290.26H302.88V291.01H305.82V291.35H308.76V292.02H311.7V292.48H314.65V293.53H317.59V295.08H320.53V295.57H323.47V296.2H326.41V296.59H329.35V297.38H332.3V298.31H335.24V298.98H338.18V299.68H341.12V300.25H344.06V300.98H347.01V301.88H349.95V302.18H352.89V303.27H355.83V303.9H358.77V304.06H361.72V304.72H364.66V305.41H367.6V306.11H370.54V306.28H373.48V306.83H376.43V307.57H379.37V309.28H382.31V310.06H385.25V310.66H388.19V311.69H391.14V311.9H394.08V312.54H397.02V312.98H399.96V314.09H402.9V314.55H405.85V315.03H408.79V315.75H411.73V316.24H414.67V316.24H417.61V316.5H420.56V317.82H423.5V318.36H426.44V318.92H429.38V319.78H432.32V320.37H435.27V320.67H438.21V320.98H441.15V320.98H444.09V321.3H447.03V322.31H449.98V323.35H452.92V325.82H455.86V326.54H458.8V327.28H461.74V329.56H464.69V329.95H467.63V331.58H470.57V331.58H473.51V332.01H476.45V332.88H479.4V333.33H482.34V334.72H485.28V336.65H488.22V337.65H491.16V338.68H494.11V339.74H497.05V340.82H499.99V341.38H502.93V342.53H505.87V343.14H508.82V343.77H511.76V344.42H514.7V344.42H517.64V345.11H520.58V345.82H523.53V345.82H526.47V347.39H529.41V347.39H532.35V349.08H535.29V349.95H538.24V350.86H541.18V353.7H544.12V353.7H547.06V353.7H550V354.82H552.95V358.35H555.89V359.58H558.83V359.58H561.77V360.93H564.71V362.38H567.66V367.14H570.6V368.85H573.54V368.85H576.48V370.79H579.42V374.92H582.37V377.14H585.31V379.61H588.25V379.61H591.19V379.61H594.13V379.61H597.08V379.61H600.02V384.26H602.96V389.64H605.9V410.02H608.84V410.02H611.79V410.02H614.73V410.02" style="vector-effect: non-scaling-stroke; fill: none; stroke: rgb(31, 119, 180); stroke-opacity: 1; stroke-width: 1.88976px; opacity: 1; stroke-dasharray: 9px, 3px, 3px, 3px;"/></g><g class="points"/><g class="text"/></g><g class="trace scatter traceaaef06" style="stroke-miterlimit: 2; opacity: 1;"><g class="fills"/><g class="errorbars"/><g class="lines"><path class="js-line" d="M29.27,20H29.27V29.09H32.21V72.41H35.16V83.5H38.1V99.53H41.04V109.16H43.98V116.87H46.92V125.05H49.87V132.83H52.81V137.44H55.75V140.66H58.69V143.94H61.63V147.69H64.58V151.02H67.52V154.61H70.46V158.51H73.4V161.43H76.34V163.27H79.29V166.01H82.23V168.84H85.17V171.06H88.11V173.7H91.05V176.62H94V178.75H96.94V180.18H99.88V181.37H102.82V183.42H105.76V185.22H108.71V187.37H111.65V189.75H114.59V191.62H117.53V192.87H120.47V194.12H123.42V195.35H126.36V196.92H129.3V198.97H132.24V201.36H135.18V202.91H138.13V203.73H141.07V204.91H144.01V206.58H146.95V207.41H149.89V208.74H152.84V210.9H155.78V212.8H158.72V213.6H161.66V214.84H164.6V215.59H167.55V216.75H170.49V218.08H173.43V219.63H176.37V220.4H179.31V221.42H182.26V222.54H185.2V223.63H188.14V224.45H191.08V225.54H194.02V226.98H196.97V228.55H199.91V229.09H202.85V229.95H205.79V231.09H208.73V231.88H211.68V233.39H214.62V234.55H217.56V235.73H220.5V236.39H223.44V237.46H226.39V238.03H229.33V238.93H232.27V240.05H235.21V241.09H238.15V242.37H241.1V243H244.04V244.09H246.98V244.68H249.92V245.45H252.86V246.3H255.81V247.03H258.75V247.85H261.69V248.75H264.63V249.86H267.57V250.52H270.52V250.92H273.46V251.67H276.4V253.06H279.34V254.26H282.28V255.06H285.23V256.09H288.17V256.69H291.11V257.45H294.05V258.06H296.99V259H299.94V260.05H302.88V260.46H305.82V261.29H308.76V261.8H311.7V262.75H314.65V263.44H317.59V264.16H320.53V264.98H323.47V265.25H326.41V265.63H329.35V266.59H332.3V267.76H335.24V268.46H338.18V269.47H341.12V270.4H344.06V271.04H347.01V271.8H349.95V272.34H352.89V273.02H355.83V274.26H358.77V275.31H361.72V276.5H364.66V277.35H367.6V277.73H370.54V277.85H373.48V278.24H376.43V278.63H379.37V279.44H382.31V280.83H385.25V281.82H388.19V282.4H391.14V282.7H394.08V283.3H397.02V284.22H399.96V285.79H402.9V286.59H405.85V287.26H408.79V287.77H411.73V287.94H414.67V288.47H417.61V289.54H420.56V290.27H423.5V291.41H426.44V292.37H429.38V292.97H432.32V293.57H435.27V294.4H438.21V295.02H441.15V296.1H444.09V296.54H447.03V296.77H449.98V297.47H452.92V298.67H455.86V298.92H458.8V299.92H461.74V300.95H464.69V302.02H467.63V302.85H470.57V303.7H473.51V304.86H476.45V305.16H479.4V306.07H482.34V307.31H485.28V308.62H488.22V309.29H491.16V309.64H494.11V309.64H497.05V310H499.99V310.75H502.93V311.52H505.87V311.52H508.82V311.52H511.76V312.39H514.7V313.73H517.64V317.42H520.58V318.84H523.53V319.82H526.47V320.34H529.41V320.88H532.35V322.01H535.29V322.59H538.24V324.41H541.18V326.29H544.12V327.61H547.06V328.31H550V329.8H552.95V329.8H555.89V333.06H558.83V337.34H561.77V341.84H564.71V342.8H567.66V346.98H570.6V346.98H573.54V349.37H576.48V351.92H579.42V351.92H582.37V353.38H585.31V354.97H588.25V356.79H591.19V363H594.13V365.31H597.08V375.59H600.02V378.51H602.96V381.86H605.9V381.86H608.84V388.09H611.79V398.51H614.73V420" style="vector-effect: non-scaling-stroke; fill: none; stroke: rgb(255, 127, 14); stroke-opacity: 1; stroke-width: 1.88976px; opacity: 1; stroke-dasharray: 9px, 3px, 3px, 3px;"/></g><g class="points"/><g class="text"/></g></g></g><g class="overplot"/><path class="xlines-above crisp" style="fill: none;" d="M0,0"/><path class="ylines-above crisp" style="fill: none;" d="M0,0"/><g class="overlines-above"/><g class="xaxislayer-above"><g class="xtick"><text text-anchor="middle" x="0" y="475.689497716895" transform="translate(78.27,0)" style="font-family: 'Open Sans', verdana, arial, sans-serif; font-size: 11.6895px; fill: rgb(77, 77, 77); fill-opacity: 1; white-space: pre;">0</text></g><g class="xtick"><text text-anchor="middle" x="0" y="475.689497716895" transform="translate(225.37,0)" style="font-family: 'Open Sans', verdana, arial, sans-serif; font-size: 11.6895px; fill: rgb(77, 77, 77); fill-opacity: 1; white-space: pre;">50</text></g><g class="xtick"><text text-anchor="middle" x="0" y="475.689497716895" transform="translate(372.47,0)" style="font-family: 'Open Sans', verdana, arial, sans-serif; font-size: 11.6895px; fill: rgb(77, 77, 77); fill-opacity: 1; white-space: pre;">100</text></g><g class="xtick"><text text-anchor="middle" x="0" y="475.689497716895" transform="translate(519.5699999999999,0)" style="font-family: 'Open Sans', verdana, arial, sans-serif; font-size: 11.6895px; fill: rgb(77, 77, 77); fill-opacity: 1; white-space: pre;">150</text></g><g class="xtick"><text text-anchor="middle" x="0" y="475.689497716895" transform="translate(666.67,0)" style="font-family: 'Open Sans', verdana, arial, sans-serif; font-size: 11.6895px; fill: rgb(77, 77, 77); fill-opacity: 1; white-space: pre;">200</text></g></g><g class="yaxislayer-above"><g class="ytick"><text text-anchor="end" x="48" y="4.09132420091325" transform="translate(0,409.24)" style="font-family: 'Open Sans', verdana, arial, sans-serif; font-size: 11.6895px; fill: rgb(77, 77, 77); fill-opacity: 1; white-space: pre;">0.85</text></g><g class="ytick"><text text-anchor="end" x="48" y="4.09132420091325" transform="translate(0,287.16)" style="font-family: 'Open Sans', verdana, arial, sans-serif; font-size: 11.6895px; fill: rgb(77, 77, 77); fill-opacity: 1; white-space: pre;">0.90</text></g><g class="ytick"><text text-anchor="end" x="48" y="4.09132420091325" transform="translate(0,165.08)" style="font-family: 'Open Sans', verdana, arial, sans-serif; font-size: 11.6895px; fill: rgb(77, 77, 77); fill-opacity: 1; white-space: pre;">0.95</text></g><g class="ytick"><text text-anchor="end" x="48" y="4.09132420091325" transform="translate(0,43)" style="font-family: 'Open Sans', verdana, arial, sans-serif; font-size: 11.6895px; fill: rgb(77, 77, 77); fill-opacity: 1; white-space: pre;">1.00</text></g></g><g class="overaxes-above"/></g></g><g class="polarlayer"/><g class="ternarylayer"/><g class="geolayer"/><g class="funnelarealayer"/><g class="pielayer"/><g class="treemaplayer"/><g class="sunburstlayer"/><g class="glimages"/><defs id="topdefs-6fa67e"><g class="clips"/><clipPath id="legend6fa67e"><rect width="149" height="116" x="0" y="0"/></clipPath></defs><g class="layer-above"><g class="imagelayer"/><g class="shapelayer"><path data-index="0" fill-rule="evenodd" d="M49,463H693V23H49Z" style="opacity: 1; stroke: rgb(0, 0, 0); stroke-opacity: 0; fill: rgb(0, 0, 0); fill-opacity: 0; stroke-width: 0px;"/></g></g><g class="infolayer"><g class="legend" pointer-events="all" transform="translate(499.79999999999995, 45.00000000000002)"><rect class="bg" shape-rendering="crispEdges" style="stroke: rgb(68, 68, 68); stroke-opacity: 1; fill: rgb(255, 255, 255); fill-opacity: 1; stroke-width: 0px;" width="149" height="116" x="0" y="0"/><g class="scrollbox" transform="translate(0, 0)" clip-path="url('#legend6fa67e')"><g class="groups" transform="translate(0, 0)"><g class="traces" style="opacity: 1;" transform="translate(0, 14.5)"><text class="legendtext user-select-none" text-anchor="start" x="40" y="4.55890410958905" style="font-family: 'Open Sans', verdana, arial, sans-serif; font-size: 11.6895px; fill: rgb(0, 0, 0); fill-opacity: 1; white-space: pre;">Post-follow (loss)</text><g class="layers" style="opacity: 1;"><g class="legendfill"/><g class="legendlines"><path class="js-line" d="M5,0h30" style="fill: none; stroke: rgb(255, 127, 14); stroke-opacity: 1; stroke-width: 1.88976px;"/></g><g class="legendsymbols"><g class="legendpoints"/></g></g><rect class="legendtoggle" pointer-events="all" x="0" y="-9.5" width="143.46875" height="19" style="cursor: pointer; fill: rgb(0, 0, 0); fill-opacity: 0;"/></g></g><g class="groups" transform="translate(0, 10)"><g class="traces" style="opacity: 1;" transform="translate(0, 33.5)"><text class="legendtext user-select-none" text-anchor="start" x="40" y="4.55890410958905" style="font-family: 'Open Sans', verdana, arial, sans-serif; font-size: 11.6895px; fill: rgb(0, 0, 0); fill-opacity: 1; white-space: pre;">Pre-follow (loss)</text><g class="layers" style="opacity: 1;"><g class="legendfill"/><g class="legendlines"><path class="js-line" d="M5,0h30" style="fill: none; stroke: rgb(31, 119, 180); stroke-opacity: 1; stroke-width: 1.88976px;"/></g><g class="legendsymbols"><g class="legendpoints"/></g></g><rect class="legendtoggle" pointer-events="all" x="0" y="-9.5" width="143.46875" height="19" style="cursor: pointer; fill: rgb(0, 0, 0); fill-opacity: 0;"/></g></g><g class="groups" transform="translate(0, 20)"><g class="traces" style="opacity: 1;" transform="translate(0, 52.5)"><text class="legendtext user-select-none" text-anchor="start" x="40" y="4.55890410958905" style="font-family: 'Open Sans', verdana, arial, sans-serif; font-size: 11.6895px; fill: rgb(0, 0, 0); fill-opacity: 1; white-space: pre;">Pre-follow (gain)</text><g class="layers" style="opacity: 1;"><g class="legendfill"/><g class="legendlines"><path class="js-line" d="M5,0h30" style="fill: none; stroke: rgb(31, 119, 180); stroke-opacity: 1; stroke-dasharray: 9px, 3px, 3px, 3px; stroke-width: 1.88976px;"/></g><g class="legendsymbols"><g class="legendpoints"/></g></g><rect class="legendtoggle" pointer-events="all" x="0" y="-9.5" width="143.46875" height="19" style="cursor: pointer; fill: rgb(0, 0, 0); fill-opacity: 0;"/></g></g><g class="groups" transform="translate(0, 30)"><g class="traces" style="opacity: 1;" transform="translate(0, 71.5)"><text class="legendtext user-select-none" text-anchor="start" x="40" y="4.55890410958905" style="font-family: 'Open Sans', verdana, arial, sans-serif; font-size: 11.6895px; fill: rgb(0, 0, 0); fill-opacity: 1; white-space: pre;">Post-follow (gain)</text><g class="layers" style="opacity: 1;"><g class="legendfill"/><g class="legendlines"><path class="js-line" d="M5,0h30" style="fill: none; stroke: rgb(255, 127, 14); stroke-opacity: 1; stroke-dasharray: 9px, 3px, 3px, 3px; stroke-width: 1.88976px;"/></g><g class="legendsymbols"><g class="legendpoints"/></g></g><rect class="legendtoggle" pointer-events="all" x="0" y="-9.5" width="143.46875" height="19" style="cursor: pointer; fill: rgb(0, 0, 0); fill-opacity: 0;"/></g></g></g><rect class="scrollbar" rx="20" ry="3" width="0" height="0" style="fill: rgb(128, 139, 164); fill-opacity: 1;" x="0" y="0"/></g><g class="g-gtitle"/><g class="g-xtitle" transform="translate(0,-19.835616438356055)"><text class="xtitle" x="371" y="516.835616438356" text-anchor="middle" style="font-family: 'Open Sans', verdana, arial, sans-serif; font-size: 14.61px; fill: rgb(0, 0, 0); opacity: 1; font-weight: normal; white-space: pre;">Holding period (days)</text></g><g class="g-ytitle" transform="translate(5.2236328125,0)"><text class="ytitle" transform="rotate(-90,9.776255707762601,243)" x="9.776255707762601" y="243" text-anchor="middle" style="font-family: 'Open Sans', verdana, arial, sans-serif; font-size: 14.61px; fill: rgb(0, 0, 0); opacity: 1; font-weight: normal; white-space: pre;">Remaining position</text></g><g class="annotation" data-index="0" style="opacity: 1;"><g class="annotation-text-g" transform="rotate(0,726.38,11.999999999999998)"><g class="cursor-pointer" transform="translate(706, 1)"><rect class="bg" x="0.5" y="0.5" width="40" height="21" style="stroke-width: 1px; stroke: rgb(0, 0, 0); stroke-opacity: 0; fill: rgb(0, 0, 0); fill-opacity: 0;"/><text class="annotation-text" text-anchor="middle" x="20.3125" y="17" style="font-family: 'Open Sans', verdana, arial, sans-serif; font-size: 14.6119px; fill: rgb(0, 0, 0); fill-opacity: 1; white-space: pre;">state</text></g></g></g></g></svg>